<svg width="52" height="52" viewBox="0 0 52 52" fill="none" xmlns="http://www.w3.org/2000/svg">
<g filter="url(#filter0_d_6_5049)">
<rect x="2" width="48" height="48" rx="8" fill="white" shape-rendering="crispEdges"/>
<rect x="2.5" y="0.5" width="47" height="47" rx="7.5" stroke="#2E3539" stroke-opacity="0.1" shape-rendering="crispEdges"/>
<path fill-rule="evenodd" clip-rule="evenodd" d="M29.7071 20.2929C30.0976 20.6834 30.0976 21.3166 29.7071 21.7071L23.7071 27.7071C23.3166 28.0976 22.6834 28.0976 22.2929 27.7071C21.9024 27.3166 21.9024 26.6834 22.2929 26.2929L28.2929 20.2929C28.6834 19.9024 29.3166 19.9024 29.7071 20.2929Z" fill="url(#paint0_linear_6_5049)"/>
<path d="M30 26.5C30 27.3284 29.3284 28 28.5 28C27.6716 28 27 27.3284 27 26.5C27 25.6716 27.6716 25 28.5 25C29.3284 25 30 25.6716 30 26.5Z" fill="url(#paint1_linear_6_5049)"/>
<path d="M25 21.5C25 22.3284 24.3284 23 23.5 23C22.6716 23 22 22.3284 22 21.5C22 20.6716 22.6716 20 23.5 20C24.3284 20 25 20.6716 25 21.5Z" fill="url(#paint2_linear_6_5049)"/>
<path fill-rule="evenodd" clip-rule="evenodd" d="M23.3348 15.0404C24.8528 13.6841 27.1473 13.6841 28.6652 15.0404L28.9069 15.2564C29.2447 15.5582 29.6749 15.7364 30.1272 15.7619L30.4508 15.78C32.4833 15.8943 34.1057 17.5168 34.22 19.5492L34.2382 19.8728C34.2636 20.3251 34.4418 20.7553 34.7436 21.0931L34.9596 21.3348C36.316 22.8528 36.316 25.1473 34.9596 26.6652L34.7436 26.9069C34.4418 27.2447 34.2636 27.6749 34.2382 28.1272L34.22 28.4508C34.1057 30.4833 32.4833 32.1057 30.4508 32.22L30.1272 32.2382C29.6749 32.2636 29.2447 32.4418 28.9069 32.7436L28.6652 32.9596C27.1473 34.316 24.8528 34.316 23.3348 32.9596L23.0931 32.7436C22.7553 32.4418 22.3251 32.2636 21.8728 32.2382L21.5492 32.22C19.5168 32.1057 17.8943 30.4833 17.78 28.4508L17.7619 28.1272C17.7364 27.6749 17.5582 27.2447 17.2564 26.9069L17.0404 26.6652C15.6841 25.1473 15.6841 22.8528 17.0404 21.3348L17.2564 21.0931C17.5582 20.7553 17.7364 20.3251 17.7619 19.8728L17.78 19.5492C17.8943 17.5168 19.5168 15.8943 21.5492 15.78L21.8728 15.7619C22.3251 15.7364 22.7553 15.5582 23.0931 15.2564L23.3348 15.0404ZM27.3326 16.5318C26.5736 15.8536 25.4264 15.8536 24.6674 16.5318L24.4257 16.7477C23.7501 17.3514 22.8896 17.7078 21.9851 17.7587L21.6615 17.7769C20.6453 17.834 19.834 18.6453 19.7769 19.6615L19.7587 19.9851C19.7078 20.8896 19.3514 21.7501 18.7477 22.4257L18.5318 22.6674C17.8536 23.4264 17.8536 24.5736 18.5318 25.3326L18.7477 25.5743C19.3514 26.2499 19.7078 27.1104 19.7587 28.015L19.7769 28.3386C19.834 29.3548 20.6453 30.166 21.6615 30.2231L21.9851 30.2413C22.8896 30.2922 23.7501 30.6486 24.4257 31.2523L24.6674 31.4682C25.4264 32.1464 26.5736 32.1464 27.3326 31.4682L27.5743 31.2523C28.2499 30.6486 29.1104 30.2922 30.015 30.2413L30.3386 30.2231C31.3548 30.166 32.166 29.3548 32.2231 28.3385L32.2413 28.015C32.2922 27.1104 32.6486 26.2499 33.2523 25.5743L33.4682 25.3326C34.1464 24.5736 34.1464 23.4264 33.4682 22.6674L33.2523 22.4257C32.6486 21.7501 32.2922 20.8896 32.2413 19.9851L32.2231 19.6615C32.166 18.6453 31.3548 17.834 30.3386 17.7769L30.015 17.7587C29.1104 17.7078 28.2499 17.3514 27.5743 16.7477L27.3326 16.5318Z" fill="url(#paint3_linear_6_5049)"/>
</g>
<defs>
<filter id="filter0_d_6_5049" x="0" y="0" width="52" height="52" filterUnits="userSpaceOnUse" color-interpolation-filters="sRGB">
<feFlood flood-opacity="0" result="BackgroundImageFix"/>
<feColorMatrix in="SourceAlpha" type="matrix" values="0 0 0 0 0 0 0 0 0 0 0 0 0 0 0 0 0 0 127 0" result="hardAlpha"/>
<feOffset dy="2"/>
<feGaussianBlur stdDeviation="1"/>
<feComposite in2="hardAlpha" operator="out"/>
<feColorMatrix type="matrix" values="0 0 0 0 0.28099 0 0 0 0 0.313411 0 0 0 0 0.345833 0 0 0 0.08 0"/>
<feBlend mode="normal" in2="BackgroundImageFix" result="effect1_dropShadow_6_5049"/>
<feBlend mode="normal" in="SourceGraphic" in2="effect1_dropShadow_6_5049" result="shape"/>
</filter>
<linearGradient id="paint0_linear_6_5049" x1="26" y1="20" x2="26" y2="28" gradientUnits="userSpaceOnUse">
<stop stop-color="#2E3539"/>
<stop offset="1" stop-color="#2E3539" stop-opacity="0.22"/>
</linearGradient>
<linearGradient id="paint1_linear_6_5049" x1="28.5" y1="25" x2="28.5" y2="28" gradientUnits="userSpaceOnUse">
<stop stop-color="#2E3539"/>
<stop offset="1" stop-color="#2E3539" stop-opacity="0.22"/>
</linearGradient>
<linearGradient id="paint2_linear_6_5049" x1="23.5" y1="20" x2="23.5" y2="23" gradientUnits="userSpaceOnUse">
<stop stop-color="#2E3539"/>
<stop offset="1" stop-color="#2E3539" stop-opacity="0.22"/>
</linearGradient>
<linearGradient id="paint3_linear_6_5049" x1="26" y1="14.0232" x2="26" y2="33.9769" gradientUnits="userSpaceOnUse">
<stop stop-color="#2E3539"/>
<stop offset="1" stop-color="#2E3539" stop-opacity="0.22"/>
</linearGradient>
</defs>
</svg>
