<svg width="52" height="52" viewBox="0 0 52 52" fill="none" xmlns="http://www.w3.org/2000/svg">
<g filter="url(#filter0_d_6_5035)">
<rect x="2" width="48" height="48" rx="8" fill="white" shape-rendering="crispEdges"/>
<rect x="2.5" y="0.5" width="47" height="47" rx="7.5" stroke="#2E3539" stroke-opacity="0.1" shape-rendering="crispEdges"/>
<path d="M27.5295 20.3519C26.9571 20.7599 26.2566 21 25.5 21C23.567 21 22 19.433 22 17.5C22 15.567 23.567 14 25.5 14C26.753 14 27.8522 14.6584 28.4705 15.6481M20 32.0872H22.6103C22.9506 32.0872 23.2889 32.1277 23.6188 32.2086L26.3769 32.8789C26.9753 33.0247 27.5988 33.0388 28.2035 32.9214L31.253 32.3281C32.0585 32.1712 32.7996 31.7854 33.3803 31.2205L35.5379 29.1217C36.154 28.5234 36.154 27.5524 35.5379 26.9531C34.9832 26.4134 34.1047 26.3527 33.4771 26.8103L30.9626 28.6449C30.6025 28.9081 30.1643 29.0498 29.7137 29.0498H27.2855L28.8311 29.0498C29.7022 29.0498 30.4079 28.3633 30.4079 27.5159V27.2091C30.4079 26.5055 29.9156 25.892 29.2141 25.7219L26.8286 25.1417C26.4404 25.0476 26.0428 25 25.6431 25C24.6783 25 22.9319 25.7988 22.9319 25.7988L20 27.0249M34 18.5C34 20.433 32.433 22 30.5 22C28.567 22 27 20.433 27 18.5C27 16.567 28.567 15 30.5 15C32.433 15 34 16.567 34 18.5ZM16 26.6L16 32.4C16 32.9601 16 33.2401 16.109 33.454C16.2049 33.6422 16.3578 33.7951 16.546 33.891C16.7599 34 17.0399 34 17.6 34H18.4C18.9601 34 19.2401 34 19.454 33.891C19.6422 33.7951 19.7951 33.6422 19.891 33.454C20 33.2401 20 32.9601 20 32.4V26.6C20 26.0399 20 25.7599 19.891 25.546C19.7951 25.3578 19.6422 25.2049 19.454 25.109C19.2401 25 18.9601 25 18.4 25L17.6 25C17.0399 25 16.7599 25 16.546 25.109C16.3578 25.2049 16.2049 25.3578 16.109 25.546C16 25.7599 16 26.0399 16 26.6Z" stroke="url(#paint0_linear_6_5035)" stroke-width="2" stroke-linecap="round" stroke-linejoin="round"/>
</g>
<defs>
<filter id="filter0_d_6_5035" x="0" y="0" width="52" height="52" filterUnits="userSpaceOnUse" color-interpolation-filters="sRGB">
<feFlood flood-opacity="0" result="BackgroundImageFix"/>
<feColorMatrix in="SourceAlpha" type="matrix" values="0 0 0 0 0 0 0 0 0 0 0 0 0 0 0 0 0 0 127 0" result="hardAlpha"/>
<feOffset dy="2"/>
<feGaussianBlur stdDeviation="1"/>
<feComposite in2="hardAlpha" operator="out"/>
<feColorMatrix type="matrix" values="0 0 0 0 0.28099 0 0 0 0 0.313411 0 0 0 0 0.345833 0 0 0 0.08 0"/>
<feBlend mode="normal" in2="BackgroundImageFix" result="effect1_dropShadow_6_5035"/>
<feBlend mode="normal" in="SourceGraphic" in2="effect1_dropShadow_6_5035" result="shape"/>
</filter>
<linearGradient id="paint0_linear_6_5035" x1="26" y1="14" x2="26" y2="34" gradientUnits="userSpaceOnUse">
<stop stop-color="#2E3539"/>
<stop offset="1" stop-color="#2E3539" stop-opacity="0.22"/>
</linearGradient>
</defs>
</svg>
