<svg width="53" height="52" viewBox="0 0 53 52" fill="none" xmlns="http://www.w3.org/2000/svg">
<g filter="url(#filter0_d_6_5027)">
<rect x="2.66699" width="48" height="48" rx="8" fill="white" shape-rendering="crispEdges"/>
<rect x="3.16699" y="0.5" width="47" height="47" rx="7.5" stroke="#2E3539" stroke-opacity="0.1" shape-rendering="crispEdges"/>
<path d="M16.667 15V15C18.3238 15 19.667 16.3431 19.667 18V22V22C19.667 22.9293 19.667 23.394 19.7439 23.7804C20.0595 25.3671 21.2999 26.6075 22.8866 26.9231C23.273 27 23.7377 27 24.667 27H30.167C30.6313 27 30.8635 27 31.0591 26.9807C32.9582 26.7937 34.4607 25.2912 34.6477 23.3921C34.667 23.1965 34.667 22.9643 34.667 22.5V22.5C34.667 22.0357 34.667 21.8035 34.6477 21.6079C34.4607 19.7088 32.9582 18.2063 31.0591 18.0193C30.8635 18 30.6313 18 30.167 18H19.667" stroke="url(#paint0_linear_6_5027)" stroke-width="2" stroke-linecap="round" stroke-linejoin="round"/>
<path d="M28.667 27H21.667C20.5624 27 19.667 27.8954 19.667 29V29C19.667 30.1046 20.5624 31 21.667 31H33.667" stroke="url(#paint1_linear_6_5027)" stroke-width="2" stroke-linecap="round" stroke-linejoin="round"/>
<path d="M31.667 31L31.667 32" stroke="url(#paint2_linear_6_5027)" stroke-width="2" stroke-linecap="round" stroke-linejoin="round"/>
<path d="M22.667 31L22.667 32" stroke="url(#paint3_linear_6_5027)" stroke-width="2" stroke-linecap="round" stroke-linejoin="round"/>
</g>
<defs>
<filter id="filter0_d_6_5027" x="0.666992" y="0" width="52" height="52" filterUnits="userSpaceOnUse" color-interpolation-filters="sRGB">
<feFlood flood-opacity="0" result="BackgroundImageFix"/>
<feColorMatrix in="SourceAlpha" type="matrix" values="0 0 0 0 0 0 0 0 0 0 0 0 0 0 0 0 0 0 127 0" result="hardAlpha"/>
<feOffset dy="2"/>
<feGaussianBlur stdDeviation="1"/>
<feComposite in2="hardAlpha" operator="out"/>
<feColorMatrix type="matrix" values="0 0 0 0 0.28099 0 0 0 0 0.313411 0 0 0 0 0.345833 0 0 0 0.08 0"/>
<feBlend mode="normal" in2="BackgroundImageFix" result="effect1_dropShadow_6_5027"/>
<feBlend mode="normal" in="SourceGraphic" in2="effect1_dropShadow_6_5027" result="shape"/>
</filter>
<linearGradient id="paint0_linear_6_5027" x1="25.667" y1="15" x2="25.667" y2="27" gradientUnits="userSpaceOnUse">
<stop stop-color="#2E3539"/>
<stop offset="1" stop-color="#2E3539" stop-opacity="0.22"/>
</linearGradient>
<linearGradient id="paint1_linear_6_5027" x1="26.667" y1="27" x2="26.667" y2="31" gradientUnits="userSpaceOnUse">
<stop stop-color="#2E3539"/>
<stop offset="1" stop-color="#2E3539" stop-opacity="0.22"/>
</linearGradient>
<linearGradient id="paint2_linear_6_5027" x1="32.167" y1="31" x2="32.167" y2="32" gradientUnits="userSpaceOnUse">
<stop stop-color="#2E3539"/>
<stop offset="1" stop-color="#2E3539" stop-opacity="0.22"/>
</linearGradient>
<linearGradient id="paint3_linear_6_5027" x1="23.167" y1="31" x2="23.167" y2="32" gradientUnits="userSpaceOnUse">
<stop stop-color="#2E3539"/>
<stop offset="1" stop-color="#2E3539" stop-opacity="0.22"/>
</linearGradient>
</defs>
</svg>
